<?xml version="1.0" encoding="utf-8"?>
<!-- Generator: Adobe Illustrator 27.1.0, SVG Export Plug-In . SVG Version: 6.00 Build 0)  -->
<svg version="1.1" id="Layer_1" xmlns="http://www.w3.org/2000/svg" xmlns:xlink="http://www.w3.org/1999/xlink" x="0px" y="0px"
	 viewBox="0 0 500 163.88" style="enable-background:new 0 0 500 163.88;" xml:space="preserve">
<style type="text/css">
	.st0{fill:#FFFFFF;}
</style>
<g>
	<g>
		<path class="st0" d="M12.57,11.69h26.44v7.94H20.87v10.26h18.14v7.94H20.87v10.5h18.14v7.94H12.57V11.69z"/>
		<path class="st0" d="M43.47,20.55h8.18v4.4c2.38-3.11,6.11-5.13,10.69-5.13c8.79,0,14.17,5.74,14.17,15.27v21.19h-8.37V35.94
			c0-5.5-2.69-8.98-8.06-8.98c-4.7,0-8.37,3.48-8.37,9.71v19.6h-8.24V20.55z"/>
		<path class="st0" d="M73.89,64.94c6.41,0,7.39-0.92,7.39-7.21V20.55h8.31V57.8c0,11.24-3.6,14.9-14.53,14.9h-1.16V64.94z
			 M85.43,6.62c3.24,0,5.19,2.08,5.19,5.19c0,3.05-1.95,5.13-5.19,5.13c-3.3,0-5.19-2.08-5.19-5.13C80.24,8.7,82.26,6.62,85.43,6.62
			z"/>
		<path class="st0" d="M93.13,38.44c0-10.38,8.18-18.63,18.5-18.63c10.26,0,18.5,8.24,18.5,18.63c0,10.32-8.24,18.57-18.5,18.57
			C101.31,57.01,93.13,48.76,93.13,38.44z M122.01,38.44c0-5.98-4.58-10.87-10.38-10.87c-5.92,0-10.38,4.88-10.38,10.87
			c0,5.92,4.46,10.81,10.38,10.81C117.43,49.25,122.01,44.36,122.01,38.44z"/>
		<path class="st0" d="M143.33,54.5l-14.66-33.96h8.79l9.95,24.06l9.41-24.06h8.67l-21.31,52.22h-8.37L143.33,54.5z"/>
	</g>
	<g>
		<path class="st0" d="M12.81,89.69h28.88v8.67H21.88v11.21h19.81v8.67H21.88v11.47h19.81v8.67H12.81V89.69z"/>
		<path class="st0" d="M57.97,118.5L43.82,99.36h11.01l8.87,12.41l8.8-12.41h10.67l-14.01,19.28l14.94,19.74H73.11l-9.54-13.01
			l-9.27,13.01H43.29L57.97,118.5z"/>
		<path class="st0" d="M81.25,118.9c0-11.41,8.94-20.34,20.28-20.34c8.74,0,15.61,5,18.61,12.07l-8.07,3.4c-1.8-4.27-5.74-7-10.47-7
			c-6.6,0-11.54,5.27-11.54,11.87c0,6.47,4.94,11.81,11.61,11.81c5,0,8.8-3.07,10.54-7.27l8.07,3.47
			c-3.07,7.2-9.67,12.27-18.74,12.27C90.12,139.18,81.25,130.11,81.25,118.9z"/>
		<path class="st0" d="M128.21,84.15c3.54,0,5.67,2.27,5.67,5.67c0,3.34-2.13,5.6-5.67,5.6c-3.6,0-5.67-2.27-5.67-5.6
			C122.54,86.42,124.74,84.15,128.21,84.15z M123.67,99.36h9.07v39.02h-9.07V99.36z"/>
		<path class="st0" d="M136.55,99.36h6.67v-5.94l9.07-6.2v12.14h7.94v8.07h-7.94v14.61c0,6.8,0.93,7.87,7.94,7.87v8.47h-1.27
			c-12.07,0-15.74-3.87-15.74-16.28v-14.67h-6.67V99.36z"/>
		<path class="st0" d="M169.1,84.15c3.54,0,5.67,2.27,5.67,5.67c0,3.34-2.13,5.6-5.67,5.6c-3.6,0-5.67-2.27-5.67-5.6
			C163.43,86.42,165.63,84.15,169.1,84.15z M164.57,99.36h9.07v39.02h-9.07V99.36z"/>
		<path class="st0" d="M178.84,99.36h8.94v4.8c2.6-3.4,6.67-5.6,11.67-5.6c9.61,0,15.48,6.27,15.48,16.68v23.15h-9.14v-22.21
			c0-6-2.93-9.8-8.8-9.8c-5.14,0-9.14,3.8-9.14,10.61v21.41h-9V99.36z"/>
		<path class="st0" d="M250.82,133.18c-2.87,3.67-7.54,6-12.74,6c-9.41,0-19.21-7.54-19.21-20.28c0-12.94,9.47-20.34,19.34-20.34
			c5.14,0,9.74,2.27,12.54,5.8v-5h9v38.02c0,10.94-6.94,19.88-20.15,19.88c-10.14,0-16.41-4.67-20.01-11.21l8-4.87
			c2.8,5.2,5.94,7.8,12.14,7.8c6.8,0,11.07-5.34,11.07-11.27V133.18z M251.22,118.77c0-6.6-5-12.01-11.67-12.01
			c-6.67,0-11.81,5.27-11.81,12.01c0,6.8,5.14,12.14,11.81,12.14C246.22,130.91,251.22,125.51,251.22,118.77z"/>
		<path class="st0" d="M280.24,114.03c0-13.81,11.07-25.01,24.88-25.01c13.87,0,24.95,11.21,24.95,25.01
			c0,13.88-11.07,25.02-24.95,25.02C291.31,139.05,280.24,127.91,280.24,114.03z M321.06,114.03c0-8.87-7.07-16.08-15.94-16.08
			c-8.87,0-15.88,7.2-15.88,16.08c0,8.87,7,16.08,15.88,16.08C313.99,130.11,321.06,122.91,321.06,114.03z"/>
		<path class="st0" d="M333.27,99.36h6.6v-0.07c0-11.21,4.47-15.61,16.34-15.61h0.8v8.34c-7.14,0-8,1.67-8,7.34h8v8.07h-8v30.95
			h-9.14v-30.95h-6.6V99.36z"/>
		<path class="st0" d="M359.69,99.36h6.6v-0.07c0-11.21,4.47-15.61,16.34-15.61h0.8v8.34c-7.14,0-8,1.67-8,7.34h8v8.07h-8v30.95
			h-9.14v-30.95h-6.6V99.36z"/>
		<path class="st0" d="M383.97,118.97c0-11.41,8.87-20.41,20.28-20.41c11.61,0,20.08,8.54,20.08,20.08v3.4h-31.75
			c1.2,5.47,5.6,9.21,12.01,9.21c5,0,8.94-2.74,10.81-6.87l7.4,4.27c-3.4,6.27-9.54,10.54-18.21,10.54
			C392.31,139.18,383.97,130.24,383.97,118.97z M393.04,114.5h22.15c-1.33-5.2-5.34-8-10.94-8
			C398.84,106.5,394.64,109.76,393.04,114.5z"/>
		<path class="st0" d="M428.33,99.36h8.94v5.8c1.8-3.87,5.07-5.8,10-5.8c2.8,0,5.14,0.67,6.87,1.67l-3.4,8.54
			c-1.33-0.87-2.87-1.53-5.4-1.53c-5.2,0-8,2.8-8,9.54v20.81h-9V99.36z"/>
		<path class="st0" d="M454.08,129.71l8.34-4c1.87,3.6,5.2,5.67,9.41,5.67c4.4,0,6.67-2.2,6.67-4.74c0-2.8-4.34-3.47-9.14-4.47
			c-6.74-1.34-13.68-3.6-13.68-11.74c0-6.27,6-12.01,15.34-11.94c7.74,0,12.94,3.13,15.94,8.07l-7.67,3.87
			c-1.6-2.74-4.53-4.47-8.27-4.47c-4.27,0-6.27,2-6.27,4.2c0,2.6,3.14,3.27,8.94,4.54c6.4,1.33,13.74,3.54,13.74,11.74
			c0,5.47-4.87,12.81-16.01,12.74C462.89,139.18,457.22,135.85,454.08,129.71z"/>
	</g>
</g>
</svg>
