<?xml version="1.0" encoding="utf-8"?>
<!-- Generator: Adobe Illustrator 27.1.0, SVG Export Plug-In . SVG Version: 6.00 Build 0)  -->
<svg version="1.1" id="Layer_1" xmlns="http://www.w3.org/2000/svg" xmlns:xlink="http://www.w3.org/1999/xlink" x="0px" y="0px"
	 viewBox="0 0 500 80.82" style="enable-background:new 0 0 500 80.82;" xml:space="preserve">
<style type="text/css">
	.st0{fill:#FFFFFF;}
</style>
<g>
	<g>
		<path class="st0" d="M4.17,12.63h25.02v7.88H12.41v10.18h16.78v7.88H12.41v18.29H4.17V12.63z"/>
		<path class="st0" d="M33.73,21.42h8.12v5.27c1.64-3.51,4.6-5.27,9.09-5.27c2.54,0,4.66,0.61,6.24,1.51l-3.09,7.75
			c-1.21-0.79-2.6-1.39-4.91-1.39c-4.73,0-7.27,2.54-7.27,8.66v18.9h-8.18V21.42z"/>
		<path class="st0" d="M63.96,7.61c3.21,0,5.15,2.06,5.15,5.15c0,3.03-1.94,5.09-5.15,5.09c-3.27,0-5.15-2.06-5.15-5.09
			C58.81,9.67,60.81,7.61,63.96,7.61z M59.84,21.42h8.24v35.44h-8.24V21.42z"/>
		<path class="st0" d="M71.66,39.17c0-11.75,8.6-18.48,17.57-18.48c4.6,0,8.78,1.88,11.33,4.91V12.03h8.24v44.83h-8.18v-4.6
			c-2.6,3.27-6.85,5.33-11.51,5.33C80.56,57.58,71.66,50.74,71.66,39.17z M101.04,39.05c0-6-4.54-10.9-10.6-10.9
			c-6.06,0-10.72,4.79-10.72,10.9c0,6.18,4.66,11.02,10.72,11.02C96.49,50.07,101.04,45.17,101.04,39.05z"/>
		<path class="st0" d="M112.3,39.17c0-11.75,8.6-18.48,17.57-18.48c4.66,0,8.84,1.94,11.39,4.97v-4.24h8.18v35.44h-8.18v-4.6
			c-2.6,3.27-6.85,5.33-11.51,5.33C121.21,57.58,112.3,50.74,112.3,39.17z M141.68,39.05c0-6-4.54-10.9-10.6-10.9
			c-6.06,0-10.72,4.79-10.72,10.9c0,6.18,4.66,11.02,10.72,11.02C137.14,50.07,141.68,45.17,141.68,39.05z"/>
		<path class="st0" d="M166.64,55.1L152.1,21.42h8.72l9.87,23.87l9.33-23.87h8.6l-21.14,51.79h-8.3L166.64,55.1z"/>
		<path class="st0" d="M191.36,37.96h22.41v6.97h-22.41V37.96z"/>
		<path class="st0" d="M216.14,49.53l7.51-5.94c2.24,3.82,5.69,6,9.69,6c4.36,0,6.72-2.85,6.72-5.94c0-3.76-4.48-4.91-9.21-6.36
			c-5.94-1.88-12.54-4.18-12.54-12.6c0-7.09,6.18-12.66,14.66-12.66c7.15,0,11.27,2.73,14.84,6.42l-6.78,5.15
			c-1.88-2.79-4.48-4.24-8-4.24c-4,0-6.18,2.18-6.18,5.03c0,3.51,4.24,4.67,9.03,6.24c6,1.94,12.78,4.6,12.78,13.08
			c0,6.97-5.57,13.75-15.27,13.75C225.41,57.46,220.13,54.07,216.14,49.53z"/>
		<path class="st0" d="M252.18,39.17c0-11.75,8.6-18.48,17.57-18.48c4.67,0,8.84,1.94,11.39,4.97v-4.24h8.18v35.44h-8.18v-4.6
			c-2.6,3.27-6.84,5.33-11.51,5.33C261.09,57.58,252.18,50.74,252.18,39.17z M281.56,39.05c0-6-4.54-10.9-10.6-10.9
			s-10.72,4.79-10.72,10.9c0,6.18,4.66,11.02,10.72,11.02S281.56,45.17,281.56,39.05z"/>
		<path class="st0" d="M292.71,21.42h6.06v-5.39l8.24-5.63v11.03h7.21v7.33H307v13.27c0,6.18,0.85,7.15,7.21,7.15v7.69h-1.15
			c-10.96,0-14.3-3.51-14.3-14.78V28.75h-6.06V21.42z"/>
		<path class="st0" d="M350.08,56.86h-8.12V52.8c-2.24,2.97-5.69,4.79-10.18,4.79c-8.36,0-13.63-5.69-13.63-15.14V21.42h8.3v20.17
			c0,5.45,2.42,8.91,7.57,8.91c4.48,0,7.88-3.45,7.88-9.63V21.42h8.18V56.86z"/>
		<path class="st0" d="M355.1,21.42h8.12v5.27c1.64-3.51,4.6-5.27,9.09-5.27c2.54,0,4.67,0.61,6.24,1.51l-3.09,7.75
			c-1.21-0.79-2.6-1.39-4.91-1.39c-4.72,0-7.27,2.54-7.27,8.66v18.9h-8.18V21.42z"/>
		<path class="st0" d="M378.85,39.17c0-11.75,8.6-18.48,17.57-18.48c4.6,0,8.78,1.88,11.33,4.91V12.03h8.24v44.83h-8.18v-4.6
			c-2.6,3.27-6.84,5.33-11.51,5.33C387.76,57.58,378.85,50.74,378.85,39.17z M408.23,39.05c0-6-4.54-10.9-10.6-10.9
			s-10.72,4.79-10.72,10.9c0,6.18,4.66,11.02,10.72,11.02S408.23,45.17,408.23,39.05z"/>
		<path class="st0" d="M419.5,39.17c0-11.75,8.6-18.48,17.57-18.48c4.67,0,8.84,1.94,11.39,4.97v-4.24h8.18v35.44h-8.18v-4.6
			c-2.6,3.27-6.84,5.33-11.51,5.33C428.41,57.58,419.5,50.74,419.5,39.17z M448.88,39.05c0-6-4.54-10.9-10.6-10.9
			s-10.72,4.79-10.72,10.9c0,6.18,4.66,11.02,10.72,11.02S448.88,45.17,448.88,39.05z"/>
		<path class="st0" d="M473.84,55.1L459.3,21.42h8.72l9.88,23.87l9.33-23.87h8.6l-21.14,51.79h-8.3L473.84,55.1z"/>
	</g>
</g>
</svg>
