<?xml version="1.0" encoding="utf-8"?>
<!-- Generator: Adobe Illustrator 27.1.0, SVG Export Plug-In . SVG Version: 6.00 Build 0)  -->
<svg version="1.1" id="Layer_1" xmlns="http://www.w3.org/2000/svg" xmlns:xlink="http://www.w3.org/1999/xlink" x="0px" y="0px"
	 viewBox="0 0 512 180.1" style="enable-background:new 0 0 512 180.1;" xml:space="preserve">
<style type="text/css">
	.st0{fill:#FFFFFF;}
	.st1{fill:#FFFFFF;fill-opacity:0;}
</style>
<g>
	<path class="st0" d="M74.9,76.3c-0.3-1.1-0.2-2.3-0.1-2.9c0.4-1.8,1.6-3.8,5.1-3.8c3.3,0,5.2,2,5.2,5.1c0,1,0,3.5,0,3.5h14v-3.9
		C99.2,62,88.2,60,80.3,60c-9.9,0-18.1,3.3-19.6,12.5c-0.4,2.5-0.5,4.7,0.1,7.6c2.4,11.5,22.3,14.8,25.2,22c0.5,1.3,0.4,3.1,0.1,4.1
		c-0.5,1.9-1.7,3.8-5.5,3.8c-3.5,0-5.6-2-5.6-5.1v-5.4H60v4.3c0,12.5,9.8,16.3,20.4,16.3c10.1,0,18.4-3.4,19.8-12.8
		c0.7-4.8,0.2-8-0.1-9.2C97.8,86.3,76.5,82.8,74.9,76.3z M257.1,76.4c-0.2-1.1-0.2-2.3,0-2.9c0.4-1.8,1.6-3.8,5.1-3.8
		c3.2,0,5.1,2,5.1,5.1c0,1,0,3.4,0,3.4h13.8v-3.9c0-12.1-10.8-14-18.7-14c-9.9,0-17.9,3.2-19.4,12.3c-0.4,2.5-0.5,4.7,0.1,7.5
		c2.4,11.3,22.1,14.6,25,21.8c0.5,1.4,0.4,3.1,0.1,4.1c-0.4,1.9-1.7,3.7-5.4,3.7c-3.5,0-5.6-2-5.6-5v-5.4h-14.9v4.3
		c0,12.4,9.7,16.1,20.1,16.1c10,0,18.3-3.4,19.6-12.7c0.6-4.8,0.2-7.9-0.1-9.1C279.8,86.4,258.7,82.9,257.1,76.4z M384.4,106.9
		l-13.2-45.1h-20.8v55.5h13.8l-0.8-46.6l14.2,46.6h19.9V61.8h-13.8L384.4,106.9z M120,61.8l-10.4,56h15.1l7.8-51.9l7.6,51.9h15
		l-10.3-56C144.9,61.8,120,61.8,120,61.8z M204.6,61.8l-7.1,43.8l-7.1-43.8h-22.9l-1.2,56h14l0.4-51.9l9.6,51.9h14.2l9.6-51.9
		l0.4,51.9h14l-1.2-56C227.5,61.8,204.6,61.8,204.6,61.8z M334.9,61.8h-14.2v41.5c0,0.7,0,1.5-0.1,2.1c-0.3,1.4-1.5,4.1-5.4,4.1
		s-5.1-2.7-5.3-4.1c-0.1-0.6-0.2-1.4-0.1-2.1V61.8h-14.2V102c0,1,0.1,3.2,0.1,3.7c1,10.5,9.2,13.9,19.5,13.9s18.6-3.4,19.6-13.9
		c0.1-0.6,0.2-2.7,0.1-3.7V61.8L334.9,61.8z M432.1,86.4v8.2h5.7v8.1c0,0.7,0,1.5-0.1,2.1c-0.2,1.5-1.7,4.1-5.7,4.1
		s-5.5-2.6-5.7-4.1c-0.1-0.6-0.1-1.4-0.1-2.1V77.1c0-0.9,0.1-1.9,0.2-2.7c0.3-1.4,1.5-4.1,5.6-4.1c4.3,0,5.4,2.8,5.6,4.1
		c0.2,0.8,0.2,2.2,0.2,2.2v3.1h14.1v-1.8c0,0,0.1-1.9-0.1-3.7c-1.1-10.5-9.7-13.8-19.6-13.8c-10,0-18.4,3.4-19.7,13.8
		c-0.1,1-0.3,2.7-0.3,3.7v23.6c0,1,0,1.8,0.2,3.7c0.9,10.2,9.8,13.8,19.7,13.8c10,0,18.8-3.6,19.7-13.8c0.2-1.9,0.2-2.7,0.2-3.7v-15
		L432.1,86.4L432.1,86.4z"/>
	<path class="st1" d="M16.2,95.4c-1.1,0.3-2.3,0.2-2.9,0.1c-1.8-0.4-3.8-1.6-3.8-5.1c0-3.3,2-5.2,5.1-5.2c1,0,3.5,0,3.5,0v-14h-3.9
		C1.9,71.2,0,82.1,0,90.1c0,9.9,3.3,18.1,12.4,19.6c2.5,0.4,4.7,0.5,7.6-0.1c11.5-2.4,14.8-22.3,22-25.2c1.3-0.5,3.1-0.4,4.1-0.1
		c1.9,0.5,3.8,1.7,3.8,5.5c0,3.5-2,5.6-5.1,5.6h-5.4v15h4.3c12.5,0,16.3-9.8,16.3-20.4c0-10.1-3.5-18.4-12.8-19.8
		c-4.8-0.7-8-0.2-9.2,0.1C26.3,72.6,22.8,93.8,16.2,95.4z"/>
	<path class="st1" d="M468.2,95.4c-1.1,0.3-2.3,0.2-2.9,0.1c-1.8-0.4-3.8-1.6-3.8-5.1c0-3.3,2-5.2,5.1-5.2c1,0,3.5,0,3.5,0v-14h-3.9
		c-12.2,0-14.1,11-14.1,18.9c0,9.9,3.3,18.1,12.5,19.6c2.5,0.4,4.7,0.5,7.5-0.1c11.5-2.4,14.8-22.3,22-25.2c1.4-0.5,3.1-0.4,4.1-0.1
		c1.9,0.5,3.8,1.7,3.8,5.5c0,3.5-2,5.6-5.1,5.6h-5.4v15h4.3c12.5,0,16.3-9.8,16.3-20.4c0-10.1-3.5-18.4-12.8-19.8
		c-4.8-0.7-8-0.2-9.2,0.1C478.2,72.6,474.8,93.8,468.2,95.4z"/>
	<path class="st1" d="M250.6,16.2c-0.3-1.1-0.2-2.3-0.1-2.9c0.4-1.8,1.6-3.8,5.1-3.8c3.3,0,5.2,2,5.2,5.1c0,1,0,3.5,0,3.5h14v-3.9
		C274.9,1.9,263.9,0,256,0c-9.9,0-18.1,3.3-19.6,12.4c-0.4,2.5-0.5,4.7,0.1,7.6c2.4,11.5,22.3,14.8,25.2,22c0.5,1.3,0.4,3.1,0.1,4.1
		c-0.5,1.9-1.7,3.8-5.5,3.8c-3.5,0-5.6-2-5.6-5.1v-5.4h-15v4.3c0,12.5,9.8,16.3,20.4,16.3c10.1,0,18.4-3.5,19.8-12.8
		c0.7-4.8,0.2-8-0.1-9.2C273.5,26.3,252.2,22.8,250.6,16.2z"/>
	<path class="st1" d="M250.6,136.3c-0.3-1.1-0.2-2.3-0.1-2.9c0.4-1.8,1.6-3.8,5.1-3.8c3.3,0,5.2,2,5.2,5.1c0,1,0,3.5,0,3.5h14v-3.9
		c0-12.2-11-14.1-18.9-14.1c-9.9,0-18.1,3.3-19.6,12.5c-0.4,2.5-0.5,4.7,0.1,7.6c2.4,11.5,22.3,14.8,25.2,22
		c0.5,1.4,0.4,3.1,0.1,4.1c-0.5,1.9-1.7,3.8-5.5,3.8c-3.5,0-5.6-2-5.6-5.1v-5.4h-15v4.3c0,12.5,9.8,16.3,20.4,16.3
		c10.1,0,18.4-3.4,19.8-12.8c0.7-4.8,0.2-8-0.1-9.2C273.5,146.3,252.2,142.9,250.6,136.3z"/>
</g>
</svg>
