<?xml version="1.0" encoding="utf-8"?>
<!-- Generator: Adobe Illustrator 27.1.0, SVG Export Plug-In . SVG Version: 6.00 Build 0)  -->
<svg version="1.1" id="Layer_1" xmlns="http://www.w3.org/2000/svg" xmlns:xlink="http://www.w3.org/1999/xlink" x="0px" y="0px"
	 viewBox="0 0 382.17 56.22" style="enable-background:new 0 0 382.17 56.22;" xml:space="preserve">
<style type="text/css">
	.st0{fill:#FFFFFF;}
</style>
<g>
	<g>
		<g>
			<path class="st0" d="M10.39,7.7h18.39v5.79H16.45v7.48h12.33v5.79H16.45V40.2h-6.06V7.7z"/>
			<path class="st0" d="M32.12,14.15h5.97v3.87c1.2-2.58,3.38-3.87,6.68-3.87c1.87,0,3.43,0.45,4.59,1.11l-2.27,5.7
				c-0.89-0.58-1.91-1.02-3.61-1.02c-3.47,0-5.34,1.87-5.34,6.37V40.2h-6.01V14.15z"/>
			<path class="st0" d="M54.34,4c2.36,0,3.78,1.51,3.78,3.78c0,2.23-1.42,3.74-3.78,3.74c-2.4,0-3.78-1.51-3.78-3.74
				C50.56,5.51,52.03,4,54.34,4z M51.31,14.15h6.06V40.2h-6.06V14.15z"/>
			<path class="st0" d="M60,27.2c0-8.64,6.32-13.58,12.91-13.58c3.38,0,6.46,1.38,8.33,3.61V7.25h6.06V40.2h-6.01v-3.38
				c-1.91,2.4-5.03,3.92-8.46,3.92C66.54,40.73,60,35.7,60,27.2z M81.59,27.11c0-4.41-3.34-8.01-7.79-8.01s-7.88,3.52-7.88,8.01
				c0,4.54,3.43,8.1,7.88,8.1S81.59,31.61,81.59,27.11z"/>
			<path class="st0" d="M89.87,27.2c0-8.64,6.32-13.58,12.91-13.58c3.43,0,6.5,1.42,8.37,3.65v-3.12h6.01V40.2h-6.01v-3.38
				c-1.91,2.4-5.03,3.92-8.46,3.92C96.42,40.73,89.87,35.7,89.87,27.2z M111.47,27.11c0-4.41-3.34-8.01-7.79-8.01
				s-7.88,3.52-7.88,8.01c0,4.54,3.43,8.1,7.88,8.1S111.47,31.61,111.47,27.11z"/>
			<path class="st0" d="M129.81,38.91l-10.69-24.76h6.41l7.26,17.54l6.86-17.54h6.32l-15.54,38.07h-6.1L129.81,38.91z"/>
			<path class="st0" d="M147.98,26.31h16.47v5.12h-16.47V26.31z"/>
			<path class="st0" d="M166.19,34.81l5.52-4.36c1.65,2.81,4.19,4.41,7.12,4.41c3.21,0,4.94-2.09,4.94-4.36
				c0-2.76-3.29-3.61-6.77-4.68c-4.36-1.38-9.22-3.07-9.22-9.26c0-5.21,4.54-9.31,10.78-9.31c5.25,0,8.28,2,10.91,4.72l-4.99,3.78
				c-1.38-2.05-3.29-3.12-5.88-3.12c-2.94,0-4.54,1.6-4.54,3.7c0,2.58,3.12,3.43,6.63,4.59c4.41,1.42,9.39,3.38,9.39,9.62
				c0,5.12-4.1,10.11-11.22,10.11C173.01,40.64,169.13,38.15,166.19,34.81z"/>
			<path class="st0" d="M192.69,27.2c0-8.64,6.32-13.58,12.91-13.58c3.43,0,6.5,1.42,8.37,3.65v-3.12h6.01V40.2h-6.01v-3.38
				c-1.91,2.4-5.03,3.92-8.46,3.92C199.23,40.73,192.69,35.7,192.69,27.2z M214.28,27.11c0-4.41-3.34-8.01-7.79-8.01
				s-7.88,3.52-7.88,8.01c0,4.54,3.43,8.1,7.88,8.1S214.28,31.61,214.28,27.11z"/>
			<path class="st0" d="M222.48,14.15h4.45v-3.96l6.06-4.14v8.1h5.3v5.39h-5.3v9.75c0,4.54,0.62,5.25,5.3,5.25v5.65h-0.85
				c-8.06,0-10.51-2.58-10.51-10.86v-9.8h-4.45V14.15z"/>
			<path class="st0" d="M264.64,40.2h-5.97v-2.98c-1.65,2.18-4.19,3.52-7.48,3.52c-6.14,0-10.02-4.19-10.02-11.13V14.15h6.1v14.83
				c0,4.01,1.78,6.54,5.57,6.54c3.29,0,5.79-2.54,5.79-7.08V14.15h6.01V40.2z"/>
			<path class="st0" d="M268.34,14.15h5.97v3.87c1.2-2.58,3.38-3.87,6.68-3.87c1.87,0,3.43,0.45,4.59,1.11l-2.27,5.7
				c-0.89-0.58-1.92-1.02-3.61-1.02c-3.47,0-5.34,1.87-5.34,6.37V40.2h-6.01V14.15z"/>
			<path class="st0" d="M285.8,27.2c0-8.64,6.32-13.58,12.91-13.58c3.38,0,6.46,1.38,8.33,3.61V7.25h6.06V40.2h-6.01v-3.38
				c-1.92,2.4-5.03,3.92-8.46,3.92C292.34,40.73,285.8,35.7,285.8,27.2z M307.39,27.11c0-4.41-3.34-8.01-7.79-8.01
				s-7.88,3.52-7.88,8.01c0,4.54,3.43,8.1,7.88,8.1S307.39,31.61,307.39,27.11z"/>
			<path class="st0" d="M315.67,27.2c0-8.64,6.32-13.58,12.91-13.58c3.43,0,6.5,1.42,8.37,3.65v-3.12h6.01V40.2h-6.01v-3.38
				c-1.92,2.4-5.03,3.92-8.46,3.92C322.22,40.73,315.67,35.7,315.67,27.2z M337.27,27.11c0-4.41-3.34-8.01-7.79-8.01
				s-7.88,3.52-7.88,8.01c0,4.54,3.43,8.1,7.88,8.1S337.27,31.61,337.27,27.11z"/>
			<path class="st0" d="M355.61,38.91l-10.69-24.76h6.41l7.26,17.54l6.86-17.54h6.32l-15.54,38.07h-6.1L355.61,38.91z"/>
		</g>
	</g>
</g>
</svg>
