<?xml version="1.0" encoding="utf-8"?>
<!-- Generator: Adobe Illustrator 27.1.0, SVG Export Plug-In . SVG Version: 6.00 Build 0)  -->
<svg version="1.1" id="_x3C_Layer_x3E_" xmlns="http://www.w3.org/2000/svg" xmlns:xlink="http://www.w3.org/1999/xlink" x="0px"
	 y="0px" viewBox="0 0 1200 262.5" style="enable-background:new 0 0 1200 262.5;" xml:space="preserve">
<style type="text/css">
	.st0{fill:#1E1E1C;}
</style>
<g>
	<path class="st0" d="M104.8,61.1h-8.2v50.1H86.5L57.3,97l0.1-0.1v-9.5c2.6-1.8,6.3-4.1,11.2-6.9c-3.6-0.6-6.5-2-8.9-4.3
		c-2.4-2.3-3.6-5.3-3.6-9.1c0-4.6,1.5-8.3,4.6-11.1c3.1-2.8,7.2-4.2,12.5-4.2c1.5,0,3.2,0.2,5,0.4v8.4c-1.2-0.2-2.4-0.3-3.8-0.3
		c-2.3,0-4.2,0.6-5.7,1.9c-1.5,1.3-2.2,3-2.2,5.3c0,2.3,0.7,4.1,2.2,5.3s3.4,1.8,5.8,1.8c2.2,0,4.6-0.5,6.9-1.4
		c0.7-0.3,1.6-0.9,2.8-1.5c1.2-0.7,1.9-1.1,2.2-1.2V52.7h18.3C104.8,52.7,104.8,61.1,104.8,61.1z M86.5,101.4V80.5L67.6,91.7
		L86.5,101.4z"/>
	<path class="st0" d="M147.3,111.2h-10V111c-0.4-2.9-0.9-5.7-1.5-8.5s-1.6-5.5-2.7-8.3c-1.1-2.7-2.6-5-4.3-6.7
		c-1.8-1.7-3.7-2.5-5.8-2.5c-2.3,0-4.1,0.7-5.2,2.2s-1.8,3.5-1.8,5.9c0,1.6,0.1,3.1,0.4,4.6h-9.8c-0.5-2.2-0.7-4-0.7-5.5
		c0-4.7,1.4-8.6,4.2-11.7c2.8-3.1,6.6-4.7,11.4-4.7c7.2,0,12.5,3.8,15.8,11.3V61.1h-35.9v-8.4H155v8.4h-7.7V111.2z"/>
	<path class="st0" d="M180.3,61.1h-28.7v-8.4h28.7V61.1z M168.9,111.2h-10.7c3.5-5.3,5.2-10.1,5.2-14.4c0-2.3-0.9-6.1-2.8-11.2
		s-2.8-9.1-2.8-11.6c0-2.6,0.6-5,1.8-7.3c1.2-2.2,2.7-4.1,4.5-5.5h10.6c-1.9,1.2-3.5,2.9-4.9,5.1c-1.3,2.2-2,4.7-2,7.5
		c0,2.5,0.9,6.3,2.8,11.6c1.8,5.3,2.8,9.1,2.8,11.4C173.4,101.6,171.9,106.4,168.9,111.2z"/>
	<path class="st0" d="M226.4,61.1h-8.2v50.1h-9.8v-0.1l-0.1,0.1l-26.5-19.5V81.4c8.4-7.4,17.3-12.3,26.6-14.9v-5.4h-31.7v-8.4h49.7
		L226.4,61.1L226.4,61.1z M208.4,100V76.2c-6.5,2.5-12.3,5.9-17.6,10.3L208.4,100z"/>
	<path class="st0" d="M249.5,61.1h-8.2v50.1h-10V67.2c0-2.3-0.4-3.9-1-4.8c-0.7-0.9-2-1.3-4-1.3h-3.3v-8.4h4.4c2.2,0,3.9,1.2,5,3.5
		c-0.6-3.3-0.9-6.2-0.9-8.7v-2h9.8v7.2h8.2L249.5,61.1L249.5,61.1z"/>
	<path class="st0" d="M262.5,98.8h-9.8V61.1H246v-8.4h49.8v8.4h-33.4v24.1c2.7-3.1,5.6-5.9,8.7-8.5c3.1-2.6,5.6-4.4,7.6-5.3h9.7
		v39.8h-9.7v-29c-2.7,2.1-5.6,4.8-8.6,7.9C267,93.1,264.5,96.1,262.5,98.8z"/>
	<path class="st0" d="M312.7,104.9c0,2-0.7,3.7-2,5s-2.9,2-4.9,2c-2,0-3.6-0.7-4.9-2c-1.3-1.3-2-3-2-5c0-1.9,0.6-3.6,2-5
		c1.3-1.4,2.9-2,4.9-2c1.9,0,3.5,0.7,4.9,2C312.1,101.2,312.7,102.9,312.7,104.9z M311,91.3h-10V51.4h10V91.3z"/>
	<path class="st0" d="M392.2,82.5c0,2.7-0.4,5.3-1.2,7.9c4.3,0,7.4,1.4,9.3,4.2V61.1h-63.2v-8.4h82.4c2.2,0,3.9,1.2,5,3.5
		c-0.6-3.3-0.9-6.2-0.9-8.7v-2h9.8v7.2h8.2v8.4h-8.2v50.1h-10v-44c0-2.3-0.4-3.9-1-4.8c-0.7-0.9-2-1.3-4-1.3h-8v50.1h-10v-0.5
		c0-7.9-3.4-11.8-10.2-11.8h-4.1c-4.3,4.6-10.1,6.8-17.2,6.8c-7.7,0-13.8-2.4-18.5-7.1s-7-11.5-7-20.3c0-2.9,0.2-5.8,0.5-8.5h9.8
		c-0.4,2.7-0.6,5.6-0.6,8.6c0,6,1.4,10.5,4.2,13.7c2.8,3.2,6.6,4.7,11.3,4.7c4.4,0,7.8-1.3,10.2-4c2.3-2.7,3.5-6.1,3.5-10.3
		c0-2.5-0.5-4.6-1.4-6.2c-1-1.6-2.4-2.4-4.4-2.4c-1.6,0-2.9,0.6-3.8,1.9c-0.9,1.2-1.4,2.8-1.4,4.8c0,1.9,0.3,3.8,0.9,5.6h-8.7
		c-0.9-1.9-1.3-4.2-1.3-6.8c0-4.1,1.3-7.5,3.8-10s5.9-3.8,10.2-3.8c4.9,0,8.8,1.7,11.8,5C390.7,73.5,392.2,77.6,392.2,82.5z"/>
	<path class="st0" d="M445.4,88l7.7-4.5c-2.1-3.8-5.1-6.4-9.1-7.8v-4.4c0-5.1,1.6-9.6,4.9-13.6s7.9-5.9,13.8-5.9
		c6.1,0,10.5,2.2,13.2,6.7v-13h10v7.2h8.3v8.4H486v50.1h-10V80.4l-30.5,18.4V88z M453.7,71.4c3.2,1.5,5.6,4.1,7.2,7.5l14.6-8.7
		c-0.6-2.9-1.8-5.2-3.7-6.9c-1.9-1.7-4.4-2.6-7.5-2.6c-3.2,0-5.8,1-7.7,3S453.7,68.2,453.7,71.4z"/>
	<path class="st0" d="M536.8,111.2h-10V111c-0.3-2.9-0.8-5.7-1.5-8.5c-0.7-2.8-1.6-5.5-2.7-8.3c-1.1-2.8-2.6-5-4.3-6.7
		c-1.8-1.7-3.7-2.5-5.8-2.5c-2.3,0-4,0.7-5.2,2.2c-1.2,1.5-1.8,3.5-1.8,5.9c0,1.6,0.1,3.1,0.4,4.6H496c-0.5-2.2-0.7-4-0.7-5.5
		c0-4.7,1.4-8.6,4.1-11.7c2.8-3.1,6.6-4.7,11.4-4.7c7.2,0,12.5,3.8,15.8,11.3V61.1h-35.9v-8.4h53.6v8.4h-7.7V111.2z"/>
	<path class="st0" d="M567.6,61.1h-8.2v50.1h-10V67.2c0-2.3-0.3-3.9-1-4.8c-0.7-0.9-2-1.3-4-1.3H541v-8.4h4.4c2.2,0,3.9,1.2,5,3.5
		c-0.6-3.3-0.9-6.2-0.9-8.7v-2h9.8v7.2h8.2L567.6,61.1L567.6,61.1z"/>
	<path class="st0" d="M590.7,111.8c-0.5,0.1-1.5,0.2-2.9,0.2c-4,0-7.3-1.2-10-3.6s-4.6-5.4-5.7-8.9c-1.1-3.6-1.7-7.7-1.7-12.4
		c0-12.8,2.1-21.4,6.2-26h-12.5v-8.4h29.5v8.4h-2.2c-2.2,0-4.2,0.7-5.7,2.1s-2.7,3.4-3.5,6c-0.8,2.6-1.3,5.3-1.6,8.1s-0.4,6-0.4,9.7
		c0,10.6,2.9,15.9,8.8,15.9c0.9,0,1.5,0,1.8-0.1L590.7,111.8L590.7,111.8z"/>
	<path class="st0" d="M606.6,98.8h-9.8V61.1h-6.7v-8.4H640v8.4h-33.4v24.1c2.7-3.1,5.6-5.9,8.7-8.5c3.1-2.6,5.6-4.4,7.6-5.3h9.7
		v39.8h-9.7v-29c-2.7,2.1-5.6,4.8-8.7,7.9C611.1,93.1,608.6,96.1,606.6,98.8z"/>
	<path class="st0" d="M686.2,61.1H678v50.1h-9.8v-0.1l-0.1,0.1l-26.5-19.5V81.4C650,74,658.9,69,668.2,66.5v-5.4h-31.7v-8.4h49.7
		L686.2,61.1L686.2,61.1z M652.1,109.1c0,1.7-0.6,3.1-1.7,4.2c-1.2,1.2-2.5,1.7-4.2,1.7c-1.6,0-3-0.6-4.1-1.7s-1.7-2.6-1.7-4.2
		c0-1.7,0.6-3.1,1.7-4.2c1.1-1.2,2.5-1.8,4.1-1.8c1.6,0,3,0.6,4.2,1.7C651.5,106,652.1,107.4,652.1,109.1z M668.2,100V76.2
		c-6.5,2.5-12.3,5.9-17.7,10.3L668.2,100z"/>
	<path class="st0" d="M716.5,73.7c0-5.9,2.1-11,6.2-15.3c4.1-4.3,9.4-6.5,15.7-6.5c4.8,0,8.5,1.3,11.1,4s3.8,6.4,3.8,11.3v44h-10
		v-0.3c0-2.4-1.1-3.5-3.2-3.5c-1.2,0-3.6,0.6-7.3,1.6c-3.8,1.1-6.8,1.6-9.3,1.6c-4.3,0-8-1.3-11-3.9c-3-2.6-4.5-6.4-4.5-11.4
		c0-2,0.2-3.8,0.5-5.4l9.8-0.1c-0.2,1.1-0.3,2.5-0.3,4.2c0,4.9,2.2,7.3,6.7,7.3c1.6,0,4.1-0.5,7.4-1.4c3.3-0.9,5.6-1.4,7-1.4
		c1.7,0,3.1,0.5,4.2,1.5v-33c0-2.2-0.4-3.9-1.2-4.9c-0.8-1-2-1.5-3.8-1.5c-3,0-5.7,1.3-8.1,3.9c-2.4,2.6-3.6,5.6-3.6,9
		c0,2.2,0.6,3.8,1.8,4.8c1.2,0.9,3,1.4,5.3,1.4c1.6,0,2.8-0.1,3.8-0.3v8.9c-1.5,0.3-3.3,0.5-5.3,0.5c-5.1,0-9-1.3-11.7-3.9
		C717.9,82.5,716.5,78.7,716.5,73.7z"/>
	<path class="st0" d="M784.6,61.1h-8.2v50.1h-10V61.1H758v-8.4h8.3v-3.5c0-6.1,1.8-10.7,5.5-13.8s8.9-4.6,15.8-4.6
		c7.7,0,15.3,1.4,22.8,4.3v8c-7.6-2.6-15-3.9-22.2-3.9c-4.2,0-7.1,0.8-9,2.5c-1.8,1.7-2.7,4.2-2.7,7.5v3.5h8.1L784.6,61.1
		L784.6,61.1z"/>
	<path class="st0" d="M828.4,111.2h-10V74.6c0-9.2-3.7-13.8-11.2-13.8c-6.2,0-9.8,3-10.6,8.9c4.6,0.1,8.4,1.4,11.3,3.9
		s4.4,6,4.5,10.5c-0.1,5-1.8,8.8-5.1,11.4c-3.3,2.6-7.8,3.9-13.5,3.9c-2.4,0-4.8-0.3-7.3-0.8V90c2.3,0.2,4.8,0.3,7.3,0.3
		c5.7,0,8.5-2.1,8.5-6.3s-2.8-6.3-8.5-6.3h-7.1v-5.5c0-5.7,1.7-10.6,5.1-14.5s8-5.9,13.7-5.9c6.1,0,10.4,2,12.9,6V45.5h10v7.2h8.3
		v8.4h-8.3L828.4,111.2L828.4,111.2z"/>
	<path class="st0" d="M859.9,111.8c-0.5,0.1-1.5,0.2-2.9,0.2c-4,0-7.3-1.2-10-3.6s-4.6-5.4-5.7-8.9c-1.1-3.6-1.7-7.7-1.7-12.4
		c0-12.8,2.1-21.4,6.2-26h-12.5v-8.4h29.5v8.4h-2.2c-2.2,0-4.2,0.7-5.7,2.1s-2.7,3.4-3.5,6c-0.8,2.6-1.3,5.3-1.6,8.1s-0.4,6-0.4,9.7
		c0,10.6,2.9,15.9,8.8,15.9c0.9,0,1.5,0,1.8-0.1L859.9,111.8L859.9,111.8z"/>
	<path class="st0" d="M913,61.1h-8.3v50.1h-10l-29.8-13.6l0.1-0.1V87.4l13.8-9.8l-13.6-8.9v-7.6h-5.8v-8.4H913L913,61.1L913,61.1z
		 M887.9,73v9.2l-12.7,9.5l19.5,9.3V61.1H871L887.9,73z"/>
	<path class="st0" d="M882.7,112c0,1.7-0.6,3.1-1.7,4.2c-1.1,1.1-2.4,1.7-4,1.7c-1.7,0.1-3.3-0.6-4.4-1.8c-1-1.1-1.6-2.5-1.6-4.1
		c0-1.7,0.6-3.1,1.7-4.2c1.1-1.2,2.5-1.8,4.1-1.8c1.7,0,3.1,0.6,4.2,1.7C882.1,108.8,882.7,110.3,882.7,112z"/>
	<path class="st0" d="M980,61.1h-8.2v50.1H962v-0.1l-0.1,0.1l-26.5-19.5V81.4C943.9,74,952.7,69,962,66.5v-5.4h-31.7v-8.4H980
		L980,61.1L980,61.1z M949.5,107.9c0,1.7-0.6,3.1-1.7,4.2c-1.2,1.2-2.5,1.7-4.2,1.7c-1.6,0-3-0.6-4.1-1.7s-1.7-2.6-1.7-4.2
		c0-1.7,0.6-3.1,1.7-4.2c1.1-1.2,2.5-1.8,4.1-1.8c1.6,0,3,0.6,4.2,1.7C948.9,104.7,949.5,106.2,949.5,107.9z M962,100V76.2
		c-6.5,2.5-12.3,5.9-17.7,10.3L962,100z"/>
	<path class="st0" d="M1003.1,61.1h-8.2v50.1h-10V67.2c0-2.3-0.3-3.9-1-4.8c-0.7-0.9-2-1.3-4-1.3h-3.3v-8.4h4.4c2.2,0,3.9,1.2,5,3.5
		c-0.6-3.3-0.9-6.2-0.9-8.7v-2h9.8v7.2h8.2L1003.1,61.1L1003.1,61.1z"/>
	<path class="st0" d="M1051.9,111.2h-9.8v-0.1l-0.1,0.1l-38.2-20.9v-8.6h7.5c4.6-0.1,8.2-1.3,10.6-3.8c2.5-2.4,3.7-5.9,3.7-10.2V67
		c-2.3,4.4-5.8,6.6-10.7,6.6c-4.3,0-7.6-1.2-10-3.8c-2.4-2.5-3.5-5.8-3.5-10c0-2.8,0.4-5.2,1.3-7.2h9.7c-0.6,2.1-0.9,4-0.9,5.9
		c0,2.1,0.5,3.7,1.5,4.8c1,1.2,2.4,1.7,4.2,1.7c4.1,0,6.1-2.9,6.1-8.6c0-1.7-0.1-3-0.2-3.9h9.5c1.7,5.8,2.5,10.8,2.5,15
		c0,5.6-1.5,10.1-4.4,13.7c-2.9,3.6-6.9,5.9-11.9,7l23.1,12.9V45.5h9.8v7.2h8.2v8.4h-8.2L1051.9,111.2L1051.9,111.2z"/>
	<path class="st0" d="M1083.3,111.8c-0.5,0.1-1.5,0.2-2.9,0.2c-4,0-7.3-1.2-10-3.6c-2.7-2.4-4.6-5.4-5.7-8.9
		c-1.1-3.6-1.7-7.7-1.7-12.4c0-12.8,2.1-21.4,6.2-26h-12.6v-8.4h29.5v8.4h-2.2c-2.2,0-4.2,0.7-5.7,2.1c-1.6,1.4-2.7,3.4-3.5,6
		c-0.8,2.6-1.3,5.3-1.6,8.1c-0.3,2.8-0.4,6-0.4,9.7c0,10.6,2.9,15.9,8.8,15.9c0.9,0,1.5,0,1.8-0.1L1083.3,111.8L1083.3,111.8z"/>
	<path class="st0" d="M1143.9,61.1h-61.2v-8.4h61.2V61.1z M1138.3,83.6c0,7.2-2.2,13.1-6.6,17.7c-4.4,4.7-10.3,7-17.8,7
		c-7.9,0-14.2-2.7-18.9-8c-4.7-5.3-7.1-12.8-7.1-22.5c0-2.8,0.1-5.3,0.4-7.3h9.6c-0.2,2.1-0.3,4.5-0.3,7.3c0,6.5,1.4,11.7,4.2,15.7
		c2.8,4,6.8,6,12.1,6c4.6,0,8.2-1.5,10.6-4.4c2.4-2.9,3.7-6.8,3.7-11.5c0-2.9-0.5-5.2-1.4-7c-0.9-1.8-2.4-2.7-4.5-2.7
		c-1.7,0-3,0.6-3.9,1.9s-1.4,2.9-1.4,5c0,1.9,0.3,4.1,0.9,6.3h-9.3c-0.9-2.1-1.3-4.4-1.3-6.9c0-4.2,1.3-7.7,3.9-10.5
		c2.6-2.8,6.2-4.2,10.7-4.2c4.9,0,8.8,1.8,11.8,5.3C1136.8,74.3,1138.3,78.6,1138.3,83.6z"/>
</g>
</svg>
