<?xml version="1.0" encoding="utf-8"?>
<!-- Generator: Adobe Illustrator 27.1.0, SVG Export Plug-In . SVG Version: 6.00 Build 0)  -->
<svg version="1.1" id="_x3C_Layer_x3E_" xmlns="http://www.w3.org/2000/svg" xmlns:xlink="http://www.w3.org/1999/xlink" x="0px"
	 y="0px" viewBox="0 0 1200 262.47" style="enable-background:new 0 0 1200 262.47;" xml:space="preserve">
<style type="text/css">
	.st0{fill:#1E1E1C;}
</style>
<g>
	<path class="st0" d="M291.85,187.43c0-5.91,2.06-11.02,6.19-15.33c4.12-4.31,9.36-6.47,15.7-6.47c4.85,0,8.55,1.33,11.12,3.99
		c2.57,2.66,3.85,6.41,3.85,11.25v44.04h-10.04v-0.27c0-2.36-1.07-3.54-3.2-3.54c-1.15,0-3.61,0.55-7.35,1.64
		c-3.75,1.09-6.84,1.64-9.26,1.64c-4.33,0-7.98-1.3-10.95-3.9c-2.97-2.6-4.46-6.41-4.46-11.43c0-2.01,0.17-3.81,0.52-5.41l9.78-0.09
		c-0.17,1.06-0.26,2.48-0.26,4.25c0,4.9,2.22,7.35,6.66,7.35c1.61,0,4.08-0.47,7.4-1.42c3.32-0.94,5.64-1.42,6.97-1.42
		c1.67,0,3.06,0.5,4.15,1.51v-32.96c0-2.24-0.39-3.87-1.17-4.87c-0.78-1-2.03-1.51-3.76-1.51c-3,0-5.71,1.32-8.13,3.94
		c-2.42,2.63-3.63,5.63-3.63,8.99c0,2.25,0.59,3.84,1.77,4.78c1.18,0.95,2.96,1.42,5.32,1.42c1.56,0,2.83-0.09,3.81-0.27v8.95
		c-1.5,0.35-3.26,0.53-5.28,0.53c-5.08,0-8.97-1.31-11.68-3.94C293.2,196.28,291.85,192.45,291.85,187.43z"/>
	<path class="st0" d="M359.85,174.85h-8.22v50.06H341.6v-50.06h-8.31v-8.42h8.31v-3.46c0-6.08,1.82-10.68,5.45-13.78
		c3.63-3.1,8.88-4.65,15.75-4.65c7.67,0,15.29,1.45,22.84,4.34v7.97c-7.61-2.6-15.03-3.9-22.24-3.9c-4.15,0-7.14,0.83-8.96,2.48
		c-1.82,1.65-2.73,4.16-2.73,7.53v3.46h8.13V174.85z"/>
	<path class="st0" d="M403.72,224.91h-10.04v-36.59c0-9.22-3.72-13.82-11.16-13.82c-6.23,0-9.75,2.95-10.56,8.86
		c4.61,0.12,8.38,1.42,11.29,3.9c2.91,2.48,4.4,5.97,4.46,10.46c-0.06,4.96-1.76,8.76-5.1,11.39c-3.35,2.63-7.85,3.94-13.5,3.94
		c-2.37,0-4.82-0.27-7.35-0.8v-8.51c2.31,0.24,4.76,0.35,7.35,0.35c5.65,0,8.48-2.1,8.48-6.29c0-4.19-2.83-6.29-8.48-6.29h-7.1
		v-5.49c0-5.73,1.69-10.57,5.06-14.53c3.37-3.96,7.95-5.94,13.71-5.94c6.11,0,10.41,2.01,12.89,6.03v-12.32h10.04v7.18h8.31v8.42
		h-8.31V224.91z"/>
	<path class="st0" d="M435.22,225.53c-0.52,0.12-1.5,0.18-2.94,0.18c-3.98,0-7.31-1.2-9.99-3.59c-2.68-2.39-4.57-5.37-5.67-8.95
		c-1.1-3.57-1.67-7.69-1.73-12.36c0-12.76,2.08-21.41,6.23-25.96h-12.55v-8.42h29.51v8.42h-2.25c-2.25,0-4.15,0.71-5.71,2.13
		c-1.56,1.42-2.73,3.43-3.5,6.03c-0.78,2.6-1.31,5.3-1.6,8.11c-0.29,2.81-0.43,6.04-0.43,9.7c0,10.57,2.94,15.86,8.83,15.86
		c0.87,0,1.47-0.03,1.82-0.09V225.53z"/>
	<path class="st0" d="M488.26,174.85h-8.31v50.06h-10.04l-29.76-13.56l0.09-0.09v-10.1l13.76-9.84l-13.58-8.86v-7.62h-5.8v-8.42
		h53.65V174.85z M463.16,186.72v9.21l-12.72,9.48l19.47,9.3v-39.87h-23.62L463.16,186.72z"/>
	<path class="st0" d="M457.97,225.75c0,1.65-0.58,3.06-1.73,4.21c-1.15,1.15-2.54,1.73-4.15,1.73c-1.61,0-2.99-0.58-4.11-1.73
		c-1.12-1.15-1.69-2.56-1.69-4.21c0-1.65,0.56-3.07,1.69-4.25c1.12-1.18,2.5-1.77,4.11-1.77c1.67,0,3.07,0.58,4.2,1.73
		C457.41,222.61,457.97,224.04,457.97,225.75z"/>
	<path class="st0" d="M559.29,174.85h-8.31v50.06h-10.04l-29.76-13.56l0.09-0.09v-10.1l13.76-9.84l-13.58-8.86v-7.62h-5.8v-8.42
		h53.65V174.85z M534.2,186.72v9.21l-12.72,9.48l19.47,9.3v-39.87h-23.62L534.2,186.72z"/>
	<path class="st0" d="M582.39,174.85h-8.22v50.06h-10.04v-43.95c0-2.3-0.35-3.9-1.04-4.78c-0.69-0.89-2.02-1.33-3.98-1.33h-3.29
		v-8.42h4.41c2.25,0,3.92,1.15,5.02,3.46c-0.58-3.31-0.87-6.2-0.87-8.68v-1.95h9.78v7.18h8.22V174.85z"/>
	<path class="st0" d="M622.02,174.85h-43.09v-8.42h27.69c0.17-1.06,0.26-2.13,0.26-3.19c0-1.83-0.36-3.22-1.08-4.16
		c-0.72-0.94-2.01-1.42-3.85-1.42c-1.1,0-2.96,0.3-5.58,0.89c-2.63,0.59-4.72,0.89-6.27,0.89c-2.71,0-5.19-0.62-7.44-1.86v-7.97
		c2.13,1.01,4.33,1.51,6.58,1.51c1.38,0,3.52-0.37,6.4-1.11c2.88-0.74,5.31-1.11,7.27-1.11c4.33,0,7.6,1.17,9.82,3.5
		c2.22,2.33,3.33,5.51,3.33,9.53c0,1.24-0.14,2.75-0.43,4.52h6.4V174.85z M615.96,225.71h-13.41l-16.44-11.78v-8.24h8.22
		c3.98-0.06,7.01-1.02,9.08-2.88c2.08-1.86,3.11-4.44,3.11-7.75c0-2.3-0.58-4.1-1.73-5.4c-1.15-1.3-2.74-1.95-4.76-1.95
		c-1.85,0-3.33,0.61-4.46,1.82c-1.12,1.21-1.69,2.76-1.69,4.65c0,1.71,0.2,3.28,0.61,4.7h-9.26c-0.58-1.77-0.87-3.69-0.87-5.76
		c0-4.02,1.4-7.32,4.2-9.92c2.8-2.6,6.53-3.9,11.21-3.9c4.96,0,8.96,1.52,11.98,4.56c3.03,3.04,4.54,6.78,4.54,11.21
		c0,4.96-1.57,8.95-4.72,11.96c-3.14,3.01-7.37,4.87-12.68,5.58l17.05,12.05V225.71z"/>
	<path class="st0" d="M694.53,196.29c0,2.66-0.4,5.29-1.21,7.89c4.27,0,7.35,1.42,9.26,4.25v-33.58h-63.16v-8.42h82.37
		c2.25,0,3.92,1.15,5.02,3.46c-0.58-3.31-0.87-6.2-0.87-8.68v-1.95h9.78v7.18h8.22v8.42h-8.22v50.06h-10.04v-43.95
		c0-2.3-0.35-3.9-1.04-4.78c-0.69-0.89-2.02-1.33-3.98-1.33h-8.05v50.06h-10.04v-0.53c0-7.86-3.4-11.78-10.21-11.78h-4.07
		c-4.33,4.55-10.07,6.82-17.22,6.82c-7.67,0-13.83-2.38-18.47-7.13c-4.64-4.75-6.97-11.53-6.97-20.34c0-2.95,0.17-5.79,0.52-8.51
		h9.78c-0.4,2.72-0.61,5.58-0.61,8.59c0,5.97,1.4,10.53,4.2,13.69c2.8,3.16,6.56,4.74,11.29,4.74c4.44,0,7.83-1.34,10.17-4.03
		c2.34-2.69,3.5-6.13,3.5-10.32c0-2.54-0.48-4.62-1.43-6.25c-0.95-1.62-2.41-2.44-4.37-2.44c-1.62,0-2.89,0.62-3.81,1.86
		c-0.92,1.24-1.38,2.84-1.38,4.79c0,1.95,0.29,3.81,0.87,5.58h-8.74c-0.87-1.95-1.3-4.22-1.3-6.82c0-4.13,1.27-7.47,3.81-10.01
		c2.54-2.54,5.94-3.81,10.21-3.81c4.9,0,8.83,1.65,11.77,4.96C693.06,187.28,694.53,191.39,694.53,196.29z"/>
	<path class="st0" d="M799.31,174.85h-10.04v50.06h-10.12v-7.97c0-4.67-1.14-8.34-3.42-11.03c-2.28-2.69-5.49-4.03-9.65-4.03
		c-2.71,0-4.86,0.64-6.45,1.9c-1.59,1.27-2.38,3.06-2.38,5.36c0,2.3,0.74,4.03,2.21,5.18c1.47,1.15,3.36,1.73,5.67,1.73
		c1.38,0,2.68-0.09,3.89-0.27v8.59c-1.73,0.35-3.63,0.53-5.71,0.53c-4.79,0-8.7-1.36-11.72-4.08c-3.03-2.72-4.54-6.65-4.54-11.78
		c0-3.9,1.04-7.18,3.11-9.84c2.08-2.66,4.87-4.49,8.39-5.49c-0.52-3.78-1.8-6.57-3.85-8.37c-2.05-1.8-4.95-2.7-8.7-2.7v-7.8h-5.45
		v-8.42h58.75V174.85z M779.15,200.01v-25.16h-23.71c3.63,1.54,6.52,3.91,8.65,7.13c2.13,3.22,3.46,6.9,3.98,11.03
		C773.15,193.72,776.84,196.06,779.15,200.01z"/>
	<path class="st0" d="M844.3,174.85h-8.22v50.06h-9.78v-0.09l-0.09,0.09l-26.48-19.49v-10.28c8.42-7.38,17.27-12.35,26.56-14.89
		v-5.41h-31.67v-8.42h49.67V174.85z M812.87,221.63c0,1.65-0.58,3.06-1.73,4.21c-1.15,1.15-2.54,1.73-4.15,1.73
		c-1.62,0-2.99-0.58-4.11-1.73c-1.12-1.15-1.69-2.55-1.69-4.21c0-1.65,0.56-3.07,1.69-4.25c1.12-1.18,2.49-1.77,4.11-1.77
		c1.61,0,3,0.58,4.15,1.73C812.3,218.48,812.87,219.92,812.87,221.63z M826.3,213.75V190c-6.46,2.48-12.34,5.91-17.65,10.28
		L826.3,213.75z"/>
	<path class="st0" d="M867.4,174.85h-8.22v50.06h-10.04v-43.95c0-2.3-0.35-3.9-1.04-4.78c-0.69-0.89-2.02-1.33-3.98-1.33h-3.29
		v-8.42h4.41c2.25,0,3.92,1.15,5.02,3.46c-0.58-3.31-0.87-6.2-0.87-8.68v-1.95h9.78v7.18h8.22V174.85z"/>
	<path class="st0" d="M916.55,207.99c0,4.9-1.83,8.76-5.49,11.56c-3.66,2.81-8.41,4.21-14.23,4.21c-7.73,0-14.08-2.64-19.04-7.93
		c-4.96-5.29-7.44-12.86-7.44-22.73c0-1.59,0.09-3.22,0.26-4.87h9.52c-0.12,2.01-0.17,3.46-0.17,4.34c0,7.56,1.5,13.19,4.5,16.88
		c3,3.69,7.12,5.54,12.37,5.54c3.12,0,5.51-0.69,7.18-2.08c1.67-1.39,2.51-3.32,2.51-5.8c0-4.96-3.98-7.44-11.94-7.44h-2.68v-8.77
		h2.16c3.11,0,5.54-0.86,7.27-2.57c1.73-1.71,2.6-4.08,2.6-7.09c0-2.18-0.53-3.94-1.6-5.27c-1.07-1.33-2.58-1.99-4.54-1.99
		c-1.9,0-3.36,0.59-4.37,1.77c-1.01,1.18-1.51,2.75-1.51,4.7c0,1.89,0.2,3.52,0.61,4.87h-9.26c-0.58-2.13-0.87-4.1-0.87-5.94
		c0-4.08,1.34-7.4,4.02-9.97c2.68-2.57,6.36-3.85,11.03-3.85c5.02,0,9.07,1.46,12.16,4.39c3.09,2.92,4.63,6.66,4.63,11.21
		c0,3.6-0.94,6.63-2.81,9.08c-1.87,2.45-4.4,4-7.57,4.65c3.86,0.35,6.95,1.67,9.26,3.94C915.39,201.09,916.55,204.15,916.55,207.99z
		"/>
</g>
</svg>
