<?xml version="1.0" encoding="utf-8"?>
<!-- Generator: Adobe Illustrator 27.1.0, SVG Export Plug-In . SVG Version: 6.00 Build 0)  -->
<svg version="1.1" id="Layer_1" xmlns="http://www.w3.org/2000/svg" xmlns:xlink="http://www.w3.org/1999/xlink" x="0px" y="0px"
	 viewBox="0 0 733.8 90" style="enable-background:new 0 0 733.8 90;" xml:space="preserve">
<style type="text/css">
	.st0{fill:#FFFFFF;}
</style>
<g>
	<path class="st0" d="M14.06,15.86h28.89v8.67H23.14v11.21h19.82v8.67H23.14V55.9h19.82v8.68H14.06V15.86z"/>
	<path class="st0" d="M47.83,25.54h8.94v4.8c2.6-3.4,6.67-5.61,11.68-5.61c9.61,0,15.48,6.27,15.48,16.68v23.15h-9.14V42.35
		c0-6.01-2.94-9.81-8.81-9.81c-5.14,0-9.14,3.8-9.14,10.61v21.42h-9.01V25.54z"/>
	<path class="st0" d="M81.06,74.05c7.01,0,8.07-1,8.07-7.87V25.54h9.08v40.7c0,12.28-3.94,16.28-15.88,16.28h-1.27V74.05z
		 M93.67,10.32c3.54,0,5.67,2.27,5.67,5.67c0,3.34-2.14,5.61-5.67,5.61c-3.6,0-5.67-2.27-5.67-5.61C88,12.59,90.2,10.32,93.67,10.32
		z"/>
	<path class="st0" d="M102.08,45.09c0-11.34,8.94-20.35,20.22-20.35c11.21,0,20.22,9.01,20.22,20.35c0,11.28-9.01,20.28-20.22,20.28
		C111.02,65.37,102.08,56.36,102.08,45.09z M133.64,45.09c0-6.54-5-11.88-11.34-11.88c-6.47,0-11.34,5.34-11.34,11.88
		c0,6.47,4.87,11.81,11.34,11.81C128.64,56.9,133.64,51.56,133.64,45.09z"/>
	<path class="st0" d="M156.93,62.64l-16.01-37.1h9.61l10.88,26.29l10.28-26.29h9.47l-23.29,57.05h-9.14L156.93,62.64z"/>
	<path class="st0" d="M201.17,11.36h31.56v9.48h-21.65v12.25h21.65v9.48h-21.65V55.1h21.65v9.48h-31.56V11.36z"/>
	<path class="st0" d="M250.51,42.85l-15.45-20.92h12.03l9.69,13.56l9.62-13.56h11.66L262.75,43l16.33,21.58h-12.03l-10.42-14.21
		L246.5,64.57h-12.03L250.51,42.85z"/>
	<path class="st0" d="M275.95,43.29c0-12.46,9.77-22.23,22.16-22.23c9.55,0,17.06,5.47,20.34,13.19l-8.82,3.72
		c-1.97-4.66-6.27-7.65-11.44-7.65c-7.22,0-12.61,5.76-12.61,12.97c0,7.07,5.39,12.9,12.68,12.9c5.47,0,9.62-3.35,11.52-7.95
		l8.82,3.79c-3.35,7.87-10.57,13.41-20.48,13.41C285.64,65.45,275.95,55.53,275.95,43.29z"/>
	<path class="st0" d="M327.26,5.31c3.86,0,6.2,2.48,6.2,6.2c0,3.64-2.33,6.12-6.2,6.12c-3.94,0-6.2-2.48-6.2-6.12
		C321.06,7.79,323.47,5.31,327.26,5.31z M322.3,21.93h9.91v42.64h-9.91V21.93z"/>
	<path class="st0" d="M336.37,21.93h7.29v-6.49l9.91-6.78v13.27h8.67v8.82h-8.67v15.96c0,7.43,1.02,8.6,8.67,8.6v9.26h-1.39
		c-13.19,0-17.2-4.23-17.2-17.79V30.75h-7.29V21.93z"/>
	<path class="st0" d="M371.94,5.31c3.86,0,6.2,2.48,6.2,6.2c0,3.64-2.33,6.12-6.2,6.12c-3.94,0-6.2-2.48-6.2-6.12
		C365.74,7.79,368.14,5.31,371.94,5.31z M366.98,21.93h9.91v42.64h-9.91V21.93z"/>
	<path class="st0" d="M382.58,21.93h9.77v5.25c2.84-3.72,7.29-6.12,12.76-6.12c10.5,0,16.91,6.85,16.91,18.22v25.29h-9.99V40.3
		c0-6.56-3.21-10.71-9.62-10.71c-5.61,0-9.99,4.15-9.99,11.59v23.4h-9.84V21.93z"/>
	<path class="st0" d="M461.22,58.89c-3.13,4.01-8.24,6.56-13.92,6.56c-10.28,0-20.99-8.24-20.99-22.16
		c0-14.14,10.35-22.23,21.14-22.23c5.61,0,10.64,2.48,13.7,6.34v-5.47h9.84v41.55c0,11.95-7.58,21.72-22.01,21.72
		c-11.08,0-17.93-5.1-21.87-12.25l8.75-5.32c3.06,5.69,6.49,8.53,13.27,8.53c7.44,0,12.1-5.83,12.1-12.32V58.89z M461.66,43.14
		c0-7.22-5.47-13.12-12.76-13.12c-7.29,0-12.9,5.76-12.9,13.12c0,7.44,5.61,13.27,12.9,13.27C456.19,56.41,461.66,50.5,461.66,43.14
		z"/>
	<path class="st0" d="M493.36,37.97c0-15.09,12.1-27.33,27.19-27.33c15.16,0,27.26,12.25,27.26,27.33
		c0,15.16-12.1,27.33-27.26,27.33C505.46,65.3,493.36,53.13,493.36,37.97z M537.97,37.97c0-9.69-7.73-17.57-17.42-17.57
		c-9.69,0-17.35,7.87-17.35,17.57c0,9.69,7.65,17.57,17.35,17.57C530.24,55.53,537.97,47.66,537.97,37.97z"/>
	<path class="st0" d="M551.3,21.93h7.22v-0.07c0-12.25,4.88-17.06,17.86-17.06h0.87v9.11c-7.8,0-8.75,1.82-8.75,8.02h8.75v8.82
		h-8.75v33.82h-9.99V30.75h-7.22V21.93z"/>
	<path class="st0" d="M580.17,21.93h7.22v-0.07c0-12.25,4.88-17.06,17.86-17.06h0.87v9.11c-7.8,0-8.75,1.82-8.75,8.02h8.75v8.82
		h-8.75v33.82h-9.99V30.75h-7.22V21.93z"/>
	<path class="st0" d="M606.7,43.36c0-12.46,9.69-22.3,22.16-22.3c12.68,0,21.94,9.33,21.94,21.94v3.72h-34.7
		c1.31,5.98,6.12,10.06,13.12,10.06c5.47,0,9.77-2.99,11.81-7.51l8.09,4.66c-3.72,6.85-10.42,11.52-19.9,11.52
		C615.81,65.45,606.7,55.68,606.7,43.36z M616.61,38.48h24.2c-1.46-5.69-5.83-8.75-11.95-8.75
		C622.95,29.73,618.36,33.3,616.61,38.48z"/>
	<path class="st0" d="M655.16,21.93h9.77v6.34c1.97-4.23,5.54-6.34,10.93-6.34c3.06,0,5.61,0.73,7.51,1.82l-3.72,9.33
		c-1.46-0.95-3.13-1.68-5.9-1.68c-5.68,0-8.75,3.06-8.75,10.42v22.74h-9.84V21.93z"/>
	<path class="st0" d="M683.3,55.1l9.11-4.37c2.04,3.94,5.69,6.2,10.28,6.2c4.81,0,7.29-2.41,7.29-5.17c0-3.06-4.74-3.79-9.99-4.88
		c-7.36-1.46-14.94-3.94-14.94-12.83c0-6.85,6.56-13.12,16.77-13.05c8.46,0,14.14,3.43,17.42,8.82l-8.38,4.23
		c-1.75-2.99-4.96-4.88-9.04-4.88c-4.66,0-6.85,2.19-6.85,4.59c0,2.84,3.43,3.57,9.77,4.96c7,1.46,15.02,3.86,15.02,12.83
		c0,5.98-5.32,13.99-17.49,13.92C692.92,65.45,686.72,61.8,683.3,55.1z"/>
</g>
</svg>
