<?xml version="1.0" encoding="utf-8"?>
<!-- Generator: Adobe Illustrator 27.1.0, SVG Export Plug-In . SVG Version: 6.00 Build 0)  -->
<svg version="1.1" id="Layer_1" xmlns="http://www.w3.org/2000/svg" xmlns:xlink="http://www.w3.org/1999/xlink" x="0px" y="0px"
	 viewBox="0 0 632.03 176.47" style="enable-background:new 0 0 632.03 176.47;" xml:space="preserve">
<style type="text/css">
	.st0{fill:#FFFFFF;}
</style>
<g>
	<g>
		<path class="st0" d="M73.82,76.77h5.37l5.02,15.67l5.72-15.67h5.21l5.6,15.71l5.21-15.71h5.33l-7.97,22.74h-5.05l-5.75-15.75
			l-5.91,15.75H81.4L73.82,76.77z"/>
		<path class="st0" d="M112.12,76.77h5.37l5.02,15.67l5.72-15.67h5.21l5.6,15.71l5.21-15.71h5.33l-7.97,22.74h-5.05l-5.75-15.75
			l-5.91,15.75h-5.17L112.12,76.77z"/>
		<path class="st0" d="M150.42,76.77h5.37l5.02,15.67l5.72-15.67h5.21l5.6,15.71l5.21-15.71h5.33l-7.97,22.74h-5.05l-5.75-15.75
			l-5.91,15.75H158L150.42,76.77z"/>
		<path class="st0" d="M192.45,93.64c1.98,0,3.15,1.28,3.15,3.19c0,1.87-1.21,3.15-3.19,3.15c-1.94,0-3.15-1.28-3.15-3.15
			C189.26,94.92,190.5,93.64,192.45,93.64z"/>
		<path class="st0" d="M215.85,96.48c-1.67,2.14-4.39,3.5-7.43,3.5c-5.48,0-11.2-4.39-11.2-11.82c0-7.54,5.52-11.86,11.28-11.86
			c2.99,0,5.68,1.32,7.31,3.38v-2.92h5.25v22.16c0,6.38-4.04,11.59-11.74,11.59c-5.91,0-9.56-2.72-11.66-6.53l4.67-2.84
			c1.63,3.03,3.46,4.55,7.08,4.55c3.96,0,6.45-3.11,6.45-6.57V96.48z M216.09,88.08c0-3.85-2.92-7-6.8-7c-3.89,0-6.88,3.07-6.88,7
			c0,3.97,2.99,7.08,6.88,7.08C213.17,95.16,216.09,92.01,216.09,88.08z"/>
		<path class="st0" d="M223.4,88.16c0-7.54,5.52-11.86,11.28-11.86c2.99,0,5.68,1.24,7.31,3.19v-2.72h5.25v22.74h-5.25v-2.96
			c-1.67,2.1-4.39,3.42-7.39,3.42C229.11,99.98,223.4,95.58,223.4,88.16z M242.25,88.08c0-3.85-2.92-7-6.8-7
			c-3.89,0-6.88,3.07-6.88,7c0,3.97,2.99,7.08,6.88,7.08C239.34,95.16,242.25,92.01,242.25,88.08z"/>
		<path class="st0" d="M250.23,70.74h5.29v28.77h-5.29V70.74z"/>
		<path class="st0" d="M257.81,88.16c0-7.54,5.52-11.86,11.28-11.86c2.99,0,5.68,1.24,7.31,3.19v-2.72h5.25v22.74h-5.25v-2.96
			c-1.67,2.1-4.39,3.42-7.39,3.42C263.52,99.98,257.81,95.58,257.81,88.16z M276.66,88.08c0-3.85-2.92-7-6.8-7
			c-3.89,0-6.88,3.07-6.88,7c0,3.97,2.99,7.08,6.88,7.08C273.75,95.16,276.66,92.01,276.66,88.08z"/>
		<path class="st0" d="M291.48,87.92l-8.24-11.16h6.42l5.17,7.23l5.13-7.23h6.22L298.01,88l8.71,11.51h-6.42l-5.56-7.58l-5.4,7.58
			h-6.42L291.48,87.92z"/>
		<path class="st0" d="M316.17,98.38l-9.33-21.62h5.6l6.34,15.32l5.99-15.32h5.52l-13.57,33.24h-5.33L316.17,98.38z"/>
		<path class="st0" d="M329.47,88.16c0-6.61,5.21-11.86,11.78-11.86c6.53,0,11.78,5.25,11.78,11.86c0,6.57-5.25,11.82-11.78,11.82
			C334.68,99.98,329.47,94.73,329.47,88.16z M347.86,88.16c0-3.81-2.92-6.92-6.61-6.92c-3.77,0-6.61,3.11-6.61,6.92
			c0,3.77,2.84,6.88,6.61,6.88C344.94,95.04,347.86,91.93,347.86,88.16z"/>
		<path class="st0" d="M353.69,76.77h3.85v-0.04c0-6.53,2.61-9.1,9.53-9.1h0.47v4.86c-4.16,0-4.67,0.97-4.67,4.28h4.67v4.7h-4.67
			v18.04h-5.33V81.47h-3.85V76.77z"/>
		<path class="st0" d="M367.84,88.16c0-7.54,5.52-11.86,11.28-11.86c2.95,0,5.64,1.21,7.27,3.15v-8.71h5.29v28.77h-5.25v-2.96
			c-1.67,2.1-4.39,3.42-7.39,3.42C373.56,99.98,367.84,95.58,367.84,88.16z M386.7,88.08c0-3.85-2.92-7-6.8-7
			c-3.89,0-6.88,3.07-6.88,7c0,3.97,2.99,7.08,6.88,7.08C383.78,95.16,386.7,92.01,386.7,88.08z"/>
		<path class="st0" d="M393.93,88.2c0-6.65,5.17-11.9,11.82-11.9c6.77,0,11.7,4.98,11.7,11.7v1.98h-18.51c0.7,3.19,3.27,5.37,7,5.37
			c2.92,0,5.21-1.59,6.3-4l4.32,2.49c-1.98,3.66-5.56,6.14-10.61,6.14C398.79,99.98,393.93,94.77,393.93,88.2z M399.22,85.59h12.91
			c-0.78-3.03-3.11-4.67-6.38-4.67C402.6,80.93,400.15,82.83,399.22,85.59z"/>
		<path class="st0" d="M419.05,88.16c0-7.54,5.52-11.86,11.28-11.86c2.99,0,5.68,1.24,7.31,3.19v-2.72h5.25v22.74h-5.25v-2.96
			c-1.67,2.1-4.39,3.42-7.39,3.42C424.76,99.98,419.05,95.58,419.05,88.16z M437.91,88.08c0-3.85-2.92-7-6.8-7
			c-3.89,0-6.88,3.07-6.88,7c0,3.97,2.99,7.08,6.88,7.08C434.99,95.16,437.91,92.01,437.91,88.08z"/>
		<path class="st0" d="M445.88,70.74h5.29v28.77h-5.29V70.74z"/>
		<path class="st0" d="M452.64,94.46l4.86-2.33c1.09,2.1,3.03,3.3,5.48,3.3c2.57,0,3.89-1.28,3.89-2.76c0-1.63-2.53-2.02-5.33-2.6
			c-3.93-0.78-7.97-2.1-7.97-6.84c0-3.66,3.5-7,8.94-6.96c4.51,0,7.54,1.83,9.29,4.7l-4.47,2.26c-0.93-1.59-2.64-2.61-4.82-2.61
			c-2.49,0-3.65,1.17-3.65,2.45c0,1.52,1.83,1.91,5.21,2.64c3.73,0.78,8.01,2.06,8.01,6.84c0,3.19-2.84,7.46-9.33,7.43
			C457.78,99.98,454.47,98.03,452.64,94.46z"/>
		<path class="st0" d="M476.87,93.64c1.98,0,3.15,1.28,3.15,3.19c0,1.87-1.21,3.15-3.19,3.15c-1.94,0-3.15-1.28-3.15-3.15
			C473.68,94.92,474.92,93.64,476.87,93.64z"/>
		<path class="st0" d="M481.65,88.16c0-6.65,5.21-11.86,11.82-11.86c5.09,0,9.1,2.92,10.85,7.04l-4.7,1.98
			c-1.05-2.49-3.34-4.08-6.1-4.08c-3.85,0-6.73,3.07-6.73,6.92c0,3.77,2.88,6.88,6.76,6.88c2.92,0,5.13-1.79,6.14-4.24l4.71,2.02
			c-1.79,4.2-5.64,7.15-10.93,7.15C486.82,99.98,481.65,94.69,481.65,88.16z"/>
		<path class="st0" d="M505.44,88.16c0-6.61,5.21-11.86,11.78-11.86c6.53,0,11.78,5.25,11.78,11.86c0,6.57-5.25,11.82-11.78,11.82
			C510.65,99.98,505.44,94.73,505.44,88.16z M523.83,88.16c0-3.81-2.92-6.92-6.61-6.92c-3.77,0-6.61,3.11-6.61,6.92
			c0,3.77,2.84,6.88,6.61,6.88C520.92,95.04,523.83,91.93,523.83,88.16z"/>
		<path class="st0" d="M531.3,76.77h5.21v2.64c1.44-1.91,3.69-3.11,6.49-3.11c3.54,0,6.03,1.48,7.39,3.93
			c1.56-2.37,4.24-3.93,7.46-3.93c6.1,0,9.25,3.65,9.25,9.53v13.69h-5.37V86.25c0-3.3-1.71-5.4-4.94-5.4
			c-2.84,0-5.02,1.98-5.02,5.95v12.71h-5.33V86.1c0-3.23-1.63-5.25-4.78-5.25c-2.95,0-5.13,2.02-5.13,6.07v12.6h-5.25V76.77z"/>
	</g>
</g>
</svg>
